<svg
    viewBox="0 0 90 90"
    fill="none"
    xmlns="http://www.w3.org/2000/svg"
>    
    <path
        d="M50 22C40 22 32 30 32 40C32 54 50 76 50 76C50 76 68 54 68 40C68 30 60 22 50 22ZM50 46C46 46 43 43 43 40C43 37 46 34 50 34C54 34 57 37 57 40C57 43 54 46 50 46Z"
        fill="#7fe64c"
    />
    
    <path
        d="M30 80H70M70 80L60 70M70 80L60 90"
        stroke="#7fe64c"
        stroke-width="5"
        stroke-linecap="round"
        stroke-linejoin="round"
    />
</svg>